<svg id="Layer_1" xmlns="http://www.w3.org/2000/svg" viewBox="0 0 78 27.8"><style>.st0{opacity:.4}.st1{fill:#f0f0f0}</style><title>kargo-logo-frame-short</title><g id="Symbols" class="st0"><g id="footer_x2F_small-logo-dark" transform="translate(-121 -40)"><g id="footer_x2F_small-logo1"><g id="kargo-logo-frame-short" transform="translate(121 40)"><g id="Layer_1_1_"><g id="Group"><path id="Shape" class="st1" d="M20.9 7.4l-6 13.1h3.9l.8-1.9h5.7l.8 1.9H30L24 7.4h-3.1zm0 8.3l1.6-3.9 1.7 3.9h-3.3z"/><path id="Shape_1_" class="st1" d="M0 0v27.8h78V0H0zm74.3 24.3H3.7v-6.4l2-2.2L9 20.5h4.5L8.2 13l5.1-5.6H8.9l-5.2 5.9V3.5h70.6v4.4c-3-1.6-6.7-.9-8.9 1.6a6.56 6.56 0 0 0 0 8.7c2.2 2.5 5.9 3.2 8.9 1.6v4.5zm-3.4-7c-1.4 0-2.7-.8-3.3-2-.6-1.3-.3-2.7.7-3.7s2.5-1.3 3.8-.8 2.2 1.8 2.2 3.1c0 1.9-1.5 3.4-3.4 3.4z"/><path id="Shape_2_" class="st1" d="M44.6 11.8c0-1.2-.5-2.3-1.4-3.1-.9-.8-2-1.3-3.3-1.3h-6.8v13.1h3.7v-4.2h1.6l2.7 4.2h4.2l-3.2-4.7c1.6-.8 2.5-2.3 2.5-4zm-5 1.4h-2.7v-2.8h2.7c.5 0 1 .3 1.2.7.3.4.3 1 0 1.4-.2.5-.7.7-1.2.7z"/><path id="Shape_3_" class="st1" d="M56.6 17.4h-.7c-3.2 0-4.1-1.7-4.1-3.5s1.2-3.5 3.6-3.5c1 0 2.1.3 2.9.9L60 8.5c-1.4-.9-3.1-1.4-4.8-1.4-1.9 0-3.7.7-5 2s-2.1 3-2.1 4.8c0 3.7 2.8 6.8 7.8 6.8 1.5 0 2.9-.1 4.3-.4v-6.4h-3.6v3.5z"/></g></g></g></g></g></g></svg>